# xmcd CD database file
#
# Track frame offsets:
#	150
#	22255
#	23330
#	48177
#	49579
#	71285
#	86512
#	102684
#	142741
#	165010
#	172711
#	198232
#	214564
#	227796
#	250179
#	263847
#	291156
#
# Disc length: 4050 seconds
#
# Revision: 0
# Processed by: cddbd v1.5.2PL0 Copyright (c) Steve Scherf et al.
# Submitted via: CDex 1.70beta2
#
DISCID=d30fd011
DTITLE=Stephen Dale Petit - Guitararama
DYEAR=2007
DGENRE=Blues
TTITLE0=Sacramento
TTITLE1=Intro
TTITLE2=Alexis Korner Says
TTITLE3=Intro
TTITLE4=Crack Whore
TTITLE5=Ain't No Sunshine
TTITLE6=Surf City W10
TTITLE7=10 Year Reflections
TTITLE8=Percy's Thumb
TTITLE9=69 Duke Street
TTITLE10=Told You So
TTITLE11=7 Cent Cotton
TTITLE12=Pure
TTITLE13=10 Year Blues
TTITLE14=Blues From Mars
TTITLE15=Bad Road Blues
TTITLE16=A Better Answer
EXTD=YEAR: 2007
EXTT0=
EXTT1=
EXTT2=
EXTT3=
EXTT4=
EXTT5=
EXTT6=
EXTT7=
EXTT8=
EXTT9=
EXTT10=
EXTT11=
EXTT12=
EXTT13=
EXTT14=
EXTT15=
EXTT16=
PLAYORDER=
